# xmcd
#
# Track frame offsets:
# 150
# 12770
# 26221
# 51627
# 69640
# 82929
# 89247
# 121043
# 143800
# 161469
# 190556
#
# Disc length: 2794 seconds
#
#
# Revision: 0
# Processed by: cddbd v1.5.1PL0 Copyright (c) Steve Scherf et al.
# Submitted via: FreeRIP 2.91 
#
DISCID=8f0ae80b
DTITLE=Core Of The Earth - Loadstone
DYEAR=2004
DGENRE=Stoner
TTITLE0=Labrador
TTITLE1=Grimaldi (the Cycle of Transformation)
TTITLE2=Chain
TTITLE3=Cadaver Dog
TTITLE4=Voci Dal Profondo
TTITLE5=Crom
TTITLE6=Swan
TTITLE7=Above
TTITLE8=Ripshine
TTITLE9=Bazooka
TTITLE10=It Came From Gonguttar
EXTD=
EXTT0=
EXTT1=
EXTT2=
EXTT3=
EXTT4=
EXTT5=
EXTT6=
EXTT7=
EXTT8=
EXTT9=
EXTT10=
PLAYORDER=
